<svg width="40" height="40" viewBox="0 0 40 40" fill="none" xmlns="http://www.w3.org/2000/svg">
<path d="M0 12.6667C0 12.2246 0.175595 11.8007 0.488156 11.4882C0.800716 11.1756 1.22464 11 1.66667 11H25C25.442 11 25.866 11.1756 26.1785 11.4882C26.4911 11.8007 26.6667 12.2246 26.6667 12.6667C26.6667 13.1087 26.4911 13.5326 26.1785 13.8452C25.866 14.1577 25.442 14.3333 25 14.3333H1.66667C1.22464 14.3333 0.800716 14.1577 0.488156 13.8452C0.175595 13.5326 0 13.1087 0 12.6667ZM0 32.6667C0 32.2246 0.175595 31.8007 0.488156 31.4882C0.800716 31.1756 1.22464 31 1.66667 31H25C25.442 31 25.866 31.1756 26.1785 31.4882C26.4911 31.8007 26.6667 32.2246 26.6667 32.6667C26.6667 33.1087 26.4911 33.5326 26.1785 33.8452C25.866 34.1577 25.442 34.3333 25 34.3333H1.66667C1.22464 34.3333 0.800716 34.1577 0.488156 33.8452C0.175595 33.5326 0 33.1087 0 32.6667ZM1.66667 21C1.22464 21 0.800716 21.1756 0.488156 21.4882C0.175595 21.8007 0 22.2246 0 22.6667C0 23.1087 0.175595 23.5326 0.488156 23.8452C0.800716 24.1577 1.22464 24.3333 1.66667 24.3333H15C15.442 24.3333 15.8659 24.1577 16.1785 23.8452C16.4911 23.5326 16.6667 23.1087 16.6667 22.6667C16.6667 22.2246 16.4911 21.8007 16.1785 21.4882C15.8659 21.1756 15.442 21 15 21H1.66667Z" fill="#515151"/>
</svg>
