<svg width="48" height="48" viewBox="0 0 48 48" fill="none" xmlns="http://www.w3.org/2000/svg">
<path d="M26 4V8.808L26.304 8.758L26.854 8.658C27.512 8.54 28.25 8.406 28.984 8.328C31.034 8.106 33.29 8.268 35.968 9.75C41.244 12.67 44 18.2 44 25C44 33.56 38.58 41.6 31.622 43.878C29.542 44.558 28.052 44.19 26.814 43.734L26.27 43.53C25.438 43.212 24.88 43 24 43C23.12 43 22.564 43.212 21.732 43.53L21.188 43.736C19.948 44.192 18.456 44.562 16.374 43.876C9.44 41.594 4 33.564 4 25C4 18.2 6.756 12.68 12.03 9.752C14.71 8.264 16.966 8.102 19.018 8.324C19.75 8.404 20.49 8.538 21.146 8.658L21.696 8.758L22 8.808V4H26ZM22 12.854C21.656 12.806 21.3267 12.754 21.012 12.698L20.332 12.576C19.7536 12.4633 19.1712 12.3719 18.586 12.302C17.186 12.15 15.792 12.238 13.97 13.248C10.24 15.32 8 19.314 8 25C8 32.114 12.576 38.416 17.626 40.076C18.542 40.378 19.048 40.26 19.806 39.982L20.186 39.836C21.044 39.5 22.322 39 24 39C25.678 39 26.956 39.5 27.812 39.834L28.192 39.98C28.952 40.26 29.46 40.376 30.378 40.076C35.436 38.42 40 32.116 40 25C40 19.312 37.76 15.314 34.03 13.25C32.21 12.24 30.814 12.152 29.414 12.304C28.834 12.366 28.29 12.464 27.666 12.578C27.4513 12.618 27.2247 12.658 26.986 12.698C26.6727 12.7527 26.344 12.8047 26 12.854V15.658C26.348 15.534 26.6813 15.3807 27 15.198L28.73 14.198L30.732 17.658L29 18.66C27.4798 19.5378 25.7554 19.9999 24 20C22.18 20 20.472 19.512 19 18.66L17.268 17.66L19.27 14.198L21.002 15.198C21.318 15.3807 21.6507 15.534 22 15.658V12.854Z" fill="black"/>
</svg>
