<svg width="48" height="50" viewBox="0 0 48 50" fill="none" xmlns="http://www.w3.org/2000/svg">
<path d="M42.3801 32.1401C42.2065 31.9996 42.0861 31.8041 42.0388 31.5859C41.9915 31.3676 42.0202 31.1398 42.12 30.9401C46.94 20.7601 49.52 7.18009 45.78 3.0001C45.0491 2.20241 44.1268 1.60437 43.1003 1.26254C42.0738 0.920717 40.9771 0.846405 39.9138 1.04664C38.8506 1.24687 37.856 1.71502 37.0242 2.40682C36.1924 3.09862 35.5507 3.99118 35.16 5.00009L29.6 19.1201C29.26 19.9801 28.88 20.8201 28.46 21.6601C28.3943 21.7836 28.3033 21.8919 28.1931 21.978C28.0829 22.0641 27.9558 22.1262 27.82 22.1601C27.6857 22.1969 27.5451 22.2053 27.4074 22.1846C27.2696 22.1639 27.1377 22.1147 27.02 22.0401C25.8083 21.2342 24.4487 20.6768 23.02 20.4001C20.0925 19.8365 17.0609 20.457 14.5902 22.1254C12.1194 23.7938 10.4112 26.374 9.84005 29.3001C9.79987 29.5098 9.8265 29.7268 9.91621 29.9206C10.0059 30.1143 10.1542 30.2751 10.34 30.3801C10.5094 30.5007 10.7121 30.5655 10.92 30.5655C11.128 30.5655 11.3307 30.5007 11.5 30.3801C12.6964 29.3759 14.102 28.6518 15.6142 28.2608C17.1264 27.8698 18.7069 27.8217 20.24 28.1201C20.7906 28.2245 21.3323 28.3716 21.86 28.5601C22.02 28.6228 22.161 28.7257 22.2696 28.8589C22.3782 28.992 22.4507 29.1508 22.48 29.3201C22.5182 29.4862 22.5104 29.6596 22.4575 29.8217C22.4047 29.9837 22.3088 30.1284 22.18 30.2401C18.2115 33.7979 13.3876 36.265 8.18005 37.4001L3.36005 38.4601C2.57038 38.6347 1.85966 39.0632 1.33664 39.68C0.813615 40.2969 0.507102 41.0681 0.464001 41.8757C0.420899 42.6833 0.643583 43.4827 1.09798 44.1517C1.55237 44.8208 2.21345 45.3225 2.98005 45.5801C6.33243 46.7036 9.84442 47.2777 13.38 47.2801C19.7351 47.2744 25.9499 45.4113 31.26 41.9201C32.8551 40.8823 34.3543 39.7043 35.7401 38.4001C35.9182 38.2556 36.1406 38.1767 36.37 38.1767C36.5995 38.1767 36.8219 38.2556 37 38.4001C37.4878 38.7452 37.9491 39.1263 38.3801 39.5401C39.4849 40.6458 40.328 41.9852 40.8471 43.4596C41.3663 44.934 41.5484 46.506 41.3801 48.0601C41.377 48.2609 41.4346 48.458 41.5452 48.6257C41.6558 48.7933 41.8143 48.9238 42 49.0001C42.191 49.0878 42.404 49.1157 42.6111 49.08C42.8181 49.0443 43.0095 48.9467 43.16 48.8001C44.2219 47.7559 45.0653 46.5107 45.641 45.1372C46.2166 43.7637 46.5131 42.2894 46.5131 40.8001C46.5131 39.3108 46.2166 37.8365 45.641 36.463C45.0653 35.0895 44.2219 33.8443 43.16 32.8001L42.3801 32.1401ZM38.96 6.52009C39.1179 6.1755 39.3565 5.87401 39.6555 5.64112C39.9546 5.40822 40.3053 5.25078 40.6781 5.18211C41.0508 5.11345 41.4346 5.13558 41.797 5.24662C42.1594 5.35767 42.4898 5.55438 42.76 5.8201C44.48 7.7201 43.3 19.1001 38.44 29.1801C38.3494 29.3815 38.1935 29.5463 37.9975 29.648C37.8014 29.7496 37.5768 29.7821 37.3601 29.7401C35.9203 29.4596 34.4398 29.4596 33 29.7401C32.7435 29.7885 32.4781 29.7367 32.2585 29.5953C32.039 29.4539 31.8821 29.2337 31.82 28.9801C31.632 28.1069 31.3365 27.2605 30.94 26.4601C30.8558 26.3142 30.8114 26.1486 30.8114 25.9801C30.8114 25.8116 30.8558 25.646 30.94 25.5001C31.8977 23.9466 32.7207 22.3139 33.4001 20.6201L38.96 6.52009Z" fill="black"/>
</svg>
