<svg width="48" height="48" viewBox="0 0 48 48" fill="none" xmlns="http://www.w3.org/2000/svg">
<path d="M36 16H38C40.1217 16 42.1566 16.8429 43.6569 18.3431C45.1571 19.8434 46 21.8783 46 24C46 26.1217 45.1571 28.1566 43.6569 29.6569C42.1566 31.1571 40.1217 32 38 32H36M36 16H4V34C4 36.1217 4.84285 38.1566 6.34315 39.6569C7.84344 41.1571 9.87827 42 12 42H28C30.1217 42 32.1566 41.1571 33.6569 39.6569C35.1571 38.1566 36 36.1217 36 34V16ZM12 2V8M20 2V8M28 2V8" stroke="#1E1E1E" stroke-width="4" stroke-linecap="round" stroke-linejoin="round"/>
</svg>
