<svg width="48" height="48" viewBox="0 0 48 48" fill="none" xmlns="http://www.w3.org/2000/svg">
<path d="M10.88 3.52007V4.16007C10.88 5.44007 11.84 6.40007 13.12 6.40007C14.08 6.40007 14.72 5.76007 15.04 4.80007L15.68 3.20007L33.6 10.5601L21.12 19.2001C19.84 20.1601 19.84 21.4401 20.16 22.7201L23.04 29.4401L18.88 41.9201C18.24 43.5201 19.52 44.8001 20.8 44.8001C21.76 44.8001 22.4 44.4801 22.72 43.2001L27.2 30.4001L27.52 31.3601V42.5601C27.52 42.5601 27.52 44.8001 29.76 44.8001C32 44.8001 32 42.5601 32 42.5601V32.0001C32 31.3601 32 31.0401 31.68 30.4001L27.2 19.5201L35.84 13.4401C36.48 12.8001 37.12 12.4801 37.12 11.5201C37.12 10.5601 36.48 9.92007 35.84 9.60007L12.8 0.320068C12.5184 0.320068 12.4224 0.377668 12.16 0.640068L10.88 3.52007ZM17.6 9.60007C15.04 9.60007 12.8 11.8401 12.8 14.4001C12.8 16.9601 15.04 19.2001 17.6 19.2001C20.16 19.2001 22.4 16.9601 22.4 14.4001C22.4 11.8401 20.16 9.60007 17.6 9.60007Z" fill="black"/>
</svg>
