<svg width="48" height="48" viewBox="0 0 48 48" fill="none" xmlns="http://www.w3.org/2000/svg">
<path d="M16.15 23.5999L26.65 24.7499L27.45 23.0499L24.4 21.3999L21.7 21.1499C21.1333 21.0833 20.6753 20.8586 20.326 20.4759C19.9767 20.0933 19.8347 19.6179 19.9 19.0499C19.9653 18.4819 20.1907 18.0153 20.576 17.6499C20.9613 17.2846 21.436 17.1346 22 17.1999L25.6 17.4499L36.65 23.5999C37.2167 23.9333 37.8087 24.1419 38.426 24.2259C39.0433 24.3099 39.6013 24.1679 40.1 23.7999L30.3 13.9999H17.85L14.6 9.19992L9.1 11.9499L12.9 21.0999C13.1667 21.7999 13.592 22.3666 14.176 22.7999C14.76 23.2333 15.418 23.4999 16.15 23.5999ZM15.7 27.5499C14.2333 27.3833 12.9253 26.8666 11.776 25.9999C10.6267 25.1333 9.768 24.0166 9.2 22.6499L5.4 13.4499C5 12.4833 4.98334 11.5086 5.35 10.5259C5.71667 9.54326 6.36667 8.81792 7.3 8.34992L12.85 5.59992C13.75 5.13325 14.6833 5.02525 15.65 5.27592C16.6167 5.52659 17.3833 6.08459 17.95 6.94992L20 9.99992H30.4C30.9333 9.99992 31.45 10.1086 31.95 10.3259C32.45 10.5433 32.8833 10.8346 33.25 11.1999L44.6 22.5999C45 22.9999 45.2 23.4666 45.2 23.9999C45.2 24.5333 45 24.9999 44.6 25.3999L44.3 25.6999C43.0333 26.9666 41.5167 27.7253 39.75 27.9759C37.9833 28.2266 36.3167 27.9179 34.75 27.0499L30.95 24.9999L30.3 26.4499C29.9333 27.2166 29.3833 27.8086 28.65 28.2259C27.9167 28.6433 27.1167 28.8013 26.25 28.6999L15.7 27.5499ZM8.4 41.4499C7.86667 41.6166 7.36667 41.5579 6.9 41.2739C6.43334 40.9899 6.11667 40.5819 5.95 40.0499C5.78334 39.4833 5.842 38.9753 6.126 38.5259C6.41 38.0766 6.83467 37.7679 7.4 37.5999L14.9 35.5999C17.3 34.9666 19.85 34.3746 22.55 33.8239C25.25 33.2733 27.7167 32.9986 29.95 32.9999C32.15 32.9999 34.2167 33.3919 36.15 34.1759C38.0833 34.9599 39.9667 36.0346 41.8 37.3999C42.2333 37.6999 42.4587 38.1086 42.476 38.6259C42.4933 39.1433 42.318 39.6013 41.95 39.9999C41.582 40.3986 41.132 40.6406 40.6 40.7259C40.068 40.8113 39.568 40.6859 39.1 40.3499C37.6 39.2833 36.0753 38.4586 34.526 37.8759C32.9767 37.2933 31.4513 37.0013 29.95 36.9999C27.8167 36.9999 25.4667 37.2753 22.9 37.8259C20.3333 38.3766 18.0167 38.9179 15.95 39.4499L8.4 41.4499Z" fill="black"/>
</svg>
