<svg width="46" height="46" viewBox="0 0 46 46" fill="none" xmlns="http://www.w3.org/2000/svg">
<path d="M23.477 4.29198C25.9046 1.86463 29.197 0.500977 32.63 0.500977C36.063 0.500977 39.3554 1.86463 41.783 4.29198C44.2103 6.7196 45.574 10.012 45.574 13.445C45.574 16.878 44.2103 20.1704 41.783 22.598L31.1375 33.2435L31.1225 33.2285L22.598 41.753C20.1704 44.1803 16.878 45.544 13.445 45.544C10.012 45.544 6.7196 44.1803 4.29198 41.753C1.86463 39.3254 0.500977 36.033 0.500977 32.6C0.500977 29.167 1.86463 25.8746 4.29198 23.447L14.9375 12.8L14.9525 12.815L23.477 4.29198ZM29 31.1075L14.936 17.0435L6.41148 25.568C4.54654 27.433 3.49884 29.9625 3.49884 32.6C3.49884 35.2375 4.54654 37.7669 6.41148 39.632C8.27652 41.4969 10.806 42.5446 13.4435 42.5446C16.081 42.5446 18.6104 41.4969 20.4755 39.632L29 31.1075ZM41 14C41 13.2043 40.6839 12.4413 40.1213 11.8787C39.5587 11.3161 38.7956 11 38 11C37.2043 11 36.4413 11.3161 35.8787 11.8787C35.3161 12.4413 35 13.2043 35 14C35 14.7956 35.3161 15.5587 35.8787 16.1213C36.4413 16.6839 37.2043 17 38 17C38.7956 17 39.5587 16.6839 40.1213 16.1213C40.6839 15.5587 41 14.7956 41 14Z" fill="black"/>
</svg>
