<svg width="48" height="48" viewBox="0 0 48 48" fill="none" xmlns="http://www.w3.org/2000/svg">
<path fill-rule="evenodd" clip-rule="evenodd" d="M46.05 12.594L33.62 25.174V33.0541H38.434C40.986 33.0541 43.114 35.182 42.688 37.946C42.262 40.074 40.348 41.562 38.22 41.562H31.492C27.876 41.562 25.112 38.798 25.112 35.182V29.8561H17.666V39.384C17.666 41.512 15.752 43.424 13.412 43C11.498 42.788 10.222 41.0861 10.222 39.1721V26.664C10.2289 24.4097 11.1275 22.2496 12.7215 20.6556C14.3156 19.0615 16.4757 18.1629 18.73 18.1561H28.728L40.306 6.42405C42.006 4.72405 45.198 4.93605 46.686 7.06405C47.964 8.76405 47.538 11.104 46.05 12.594ZM1.52002 13.2641C1.52002 11.5407 2.20463 9.88788 3.42324 8.66927C4.64185 7.45066 6.29464 6.76605 8.01802 6.76605C9.7414 6.76605 11.3942 7.45066 12.6128 8.66927C13.8314 9.88788 14.516 11.5407 14.516 13.2641C14.516 14.9874 13.8314 16.6402 12.6128 17.8588C11.3942 19.0774 9.7414 19.762 8.01802 19.762C6.29464 19.762 4.64185 19.0774 3.42324 17.8588C2.20463 16.6402 1.52002 14.9874 1.52002 13.2641Z" fill="black"/>
</svg>
