<svg width="28" height="26" viewBox="0 0 28 26" fill="none" xmlns="http://www.w3.org/2000/svg">
<path fill-rule="evenodd" clip-rule="evenodd" d="M23 26H5V24H23V26Z" fill="#F6640F"/>
<path fill-rule="evenodd" clip-rule="evenodd" d="M10.489 6.33001C8.846 6.61401 7.649 8.00601 7.453 9.66201L6 22H22L20.544 9.64501C20.35 7.99701 19.164 6.60801 17.53 6.32201C15.08 5.89301 13.038 5.88901 10.489 6.33001ZM11.73 10.648C11.7562 10.3882 11.6798 10.1285 11.5171 9.92425C11.3544 9.72005 11.1182 9.5876 10.8591 9.55521C10.6 9.52282 10.3385 9.59307 10.1305 9.75093C9.92251 9.90879 9.78451 10.1417 9.746 10.4L8.841 17.638C8.82134 17.7699 8.82824 17.9043 8.8613 18.0335C8.89436 18.1626 8.95291 18.2839 9.0335 18.39C9.1141 18.4962 9.21511 18.5852 9.33061 18.6518C9.4461 18.7184 9.57375 18.7612 9.70603 18.7778C9.83831 18.7943 9.97257 18.7842 10.1009 18.7481C10.2292 18.712 10.349 18.6506 10.4533 18.5675C10.5576 18.4844 10.6441 18.3813 10.708 18.2643C10.7718 18.1473 10.8116 18.0186 10.825 17.886L11.73 10.648Z" fill="#F6640F"/>
<path d="M3 14C3 14.337 3.015 14.67 3.045 15H0V13H3.045C3.015 13.33 3 13.663 3 14ZM5.012 7.656C4.62633 8.20167 4.29127 8.78141 4.011 9.388L1.376 7.866L2.376 6.134L5.012 7.656ZM9.387 4.01C8.778 4.293 8.199 4.629 7.657 5.012L6.134 2.376L7.866 1.376L9.387 4.01ZM14 3C13.663 3 13.33 3.015 13 3.045V0H15V3.045C14.6675 3.01506 14.3338 3.00005 14 3ZM20.344 5.012C19.7983 4.62637 19.2186 4.29131 18.612 4.011L20.134 1.376L21.866 2.376L20.344 5.012ZM23.99 9.387C23.7093 8.78106 23.3739 8.202 22.988 7.657L25.624 6.134L26.624 7.866L23.989 9.387H23.99ZM25 14C25 13.663 24.985 13.33 24.955 13H28V15H24.955C24.985 14.67 25 14.337 25 14Z" fill="#F6640F"/>
</svg>
