<svg width="78" height="64" viewBox="0 0 78 64" fill="none" xmlns="http://www.w3.org/2000/svg">
<rect x="16.1698" y="2.8501" width="46.7456" height="61.1498" fill="#823FAB"/>
<rect x="16.1698" y="4.92285" width="46.7456" height="5.18219" fill="#905EAF"/>
<rect x="16.1698" y="56.7451" width="46.7456" height="5.18219" fill="#905EAF"/>
<rect x="16.1698" y="44.3076" width="46.7456" height="5.18219" fill="#905EAF"/>
<rect x="16.1698" y="16.5242" width="46.7456" height="5.18219" fill="#905EAF"/>
<rect x="2.03833" y="2.8501" width="13.0453" height="32.1296" fill="#D28800"/>
<rect x="6.38675" y="33.9434" width="8.69687" height="26.9474" fill="#D28800"/>
<rect x="62.9149" y="2.8501" width="13.0453" height="32.1296" fill="#D28800"/>
<rect x="62.9149" y="33.9431" width="8.69687" height="26.9474" fill="#D28800"/>
<rect x="15.0851" y="30.8342" width="47.8328" height="6.21862" fill="#FBB603"/>
<mask id="mask0_3359_1096" style="mask-type:alpha" maskUnits="userSpaceOnUse" x="0" y="0" width="78" height="64">
<path d="M75.2143 0H64.0714C63.3326 0 62.6241 0.279695 62.1017 0.777922C61.5791 1.27589 61.2857 1.95146 61.2857 2.65587V5.31174H16.7143V2.65587C16.7143 1.95151 16.4209 1.27595 15.8983 0.777922C15.376 0.279666 14.6674 0 13.9286 0H2.78571C2.04692 0 1.33833 0.279695 0.815954 0.777922C0.29334 1.27589 0 1.95146 0 2.65587V34.5263C0 35.2307 0.293369 35.9062 0.815954 36.4043C1.33827 36.9025 2.04687 37.1822 2.78571 37.1822V61.085C2.78571 61.7894 3.07908 62.4649 3.60167 62.963C4.12399 63.4612 4.83258 63.7409 5.57143 63.7409H72.4286C73.1674 63.7409 73.876 63.4612 74.3983 62.963C74.9209 62.465 75.2143 61.7894 75.2143 61.085V37.1822C75.9531 37.1822 76.6617 36.9025 77.184 36.4043C77.7067 35.9063 78 35.2307 78 34.5263V2.65587C78 1.95151 77.7066 1.27595 77.184 0.777922C76.6617 0.279666 75.9531 0 75.2143 0ZM66.8571 5.31174H72.4286V31.8704H66.8571V5.31174ZM61.2857 10.6235V31.8704H50.1429V29.2146C50.1429 27.8058 49.5558 26.4547 48.5109 25.4587C47.4663 24.4626 46.049 23.9028 44.5714 23.9028H33.4286C31.951 23.9028 30.5337 24.4625 29.4891 25.4587C28.4442 26.4547 27.8571 27.8059 27.8571 29.2146V31.8704H16.7143V10.6235H61.2857ZM44.5714 39.8381H33.4286V29.2146H44.5714V39.8381ZM5.57143 5.31174H11.1429V31.8704H5.57143V5.31174ZM8.35714 37.1822H13.9286V58.4291H8.35714V37.1822ZM19.5 37.1822H27.8571V39.8381C27.8571 41.2468 28.4442 42.598 29.4891 43.5939C30.5337 44.5901 31.951 45.1498 33.4286 45.1498H36.2143V47.8057C36.2143 48.7546 36.7453 49.6313 37.6071 50.1058C38.469 50.5803 39.531 50.5803 40.3929 50.1058C41.2547 49.6313 41.7857 48.7546 41.7857 47.8057V45.1498H44.5714C46.049 45.1498 47.4663 44.5901 48.5109 43.5939C49.5558 42.598 50.1429 41.2467 50.1429 39.8381V37.1822H58.5V58.4291H19.5V37.1822ZM69.6429 58.4291H64.0714V37.1822H69.6429V58.4291Z" fill="black"/>
</mask>
<g mask="url(#mask0_3359_1096)">
<path d="M17.3203 31.8701H19.4316V88.874H-14.332V37.0527H-16.4443V-19.9512H17.3203V31.8701Z" fill="#FBB603"/>
<path d="M94.4425 31.8701H96.6183V88.874H61.8302V37.0527H59.6554V-19.9512H94.4425V31.8701Z" fill="#FBB603"/>
</g>
<rect x="28.1289" y="23.5789" width="21.7422" height="21.7652" rx="4" fill="#FBCF04"/>
<path d="M39.0012 28.761C34.2638 28.761 35.7113 32.976 37.0272 35.0835C35.4481 39.7524 36.3693 40.2712 37.0272 39.947C38.3432 40.1091 41.0738 40.336 41.4686 39.947C41.8634 39.5579 41.3041 36.2183 40.9751 34.5972C42.291 32.6518 43.7386 28.761 39.0012 28.761Z" fill="#DB8E00"/>
</svg>
