<svg width="25" height="28" viewBox="0 0 25 28" fill="none" xmlns="http://www.w3.org/2000/svg">
<rect width="25" height="28" fill="#FFB861"/>
<path fill-rule="evenodd" clip-rule="evenodd" d="M20.8333 3.5H4.16667C3.02084 3.5 2.08334 4.55 2.08334 5.83333V22.1667C2.08334 23.45 3.02084 24.5 4.16667 24.5H20.8333C21.9792 24.5 22.9167 23.45 22.9167 22.1667V5.83333C22.9167 4.55 21.9792 3.5 20.8333 3.5ZM10.4167 19.8333H5.20834V17.5H10.4167V19.8333ZM10.4167 15.1667H5.20834V12.8333H10.4167V15.1667ZM10.4167 10.5H5.20834V8.16667H10.4167V10.5ZM15.4375 17.5L12.5 14.1867L13.9688 12.5417L15.4375 14.1983L18.7396 10.5L20.2188 12.1567L15.4375 17.5Z" fill="white"/>
</svg>
