<svg width="25" height="24" viewBox="0 0 25 24" fill="none" xmlns="http://www.w3.org/2000/svg">
<path d="M6.95594 1.94462L5.16368 0.184616C2.15571 2.43692 0.175465 5.90769 0 9.84615H2.50664C2.59542 8.28531 3.0416 6.76423 3.81194 5.39617C4.58228 4.02811 5.65695 2.84831 6.95594 1.94462ZM22.4846 9.84615H24.9912C24.8032 5.90769 22.823 2.43692 19.8275 0.184616L18.0478 1.94462C19.3413 2.85276 20.4111 4.03386 21.1789 5.40119C21.9467 6.76851 22.3928 8.28734 22.4846 9.84615ZM20.0155 10.4615C20.0155 6.68308 17.9601 3.52 14.3756 2.68308V1.84615C14.3756 0.824615 13.5359 0 12.4956 0C11.4554 0 10.6156 0.824615 10.6156 1.84615V2.68308C7.0186 3.52 4.97569 6.67077 4.97569 10.4615V16.6154L2.46904 19.0769V20.3077H22.5222V19.0769L20.0155 16.6154V10.4615ZM12.4956 24C12.6711 24 12.834 23.9877 12.9969 23.9508C13.8116 23.7785 14.4759 23.2369 14.8017 22.4985C14.9271 22.2031 14.9897 21.8831 14.9897 21.5385H9.97644C9.98897 22.8923 11.1044 24 12.4956 24Z" fill="#64625E"/>
</svg>
