<svg width="42" height="36" viewBox="0 0 42 36" fill="none" xmlns="http://www.w3.org/2000/svg">
<path d="M24 28.5H21V25.5C20.9988 24.3069 20.5243 23.163 19.6807 22.3193C18.837 21.4757 17.6931 21.0012 16.5 21H10.5C9.30689 21.0012 8.16299 21.4757 7.31933 22.3193C6.47568 23.163 6.00119 24.3069 6 25.5V28.5H3V25.5C3.00238 23.5116 3.79332 21.6053 5.19933 20.1993C6.60534 18.7933 8.51161 18.0024 10.5 18H16.5C18.4884 18.0024 20.3947 18.7933 21.8007 20.1993C23.2067 21.6053 23.9976 23.5116 24 25.5V28.5ZM13.5 3C14.39 3 15.26 3.26392 16.0001 3.75839C16.7401 4.25285 17.3169 4.95566 17.6575 5.77792C17.9981 6.60019 18.0872 7.50499 17.9135 8.37791C17.7399 9.25082 17.3113 10.0526 16.682 10.682C16.0526 11.3113 15.2508 11.7399 14.3779 11.9135C13.505 12.0872 12.6002 11.9981 11.7779 11.6575C10.9557 11.3169 10.2529 10.7401 9.75839 10.0001C9.26392 9.26005 9 8.39002 9 7.5C9 6.30653 9.4741 5.16193 10.318 4.31802C11.1619 3.47411 12.3065 3 13.5 3ZM13.5 0C12.0166 0 10.5666 0.439867 9.33322 1.26398C8.09985 2.08809 7.13856 3.25943 6.5709 4.62987C6.00325 6.00032 5.85472 7.50832 6.14411 8.96318C6.4335 10.418 7.14781 11.7544 8.1967 12.8033C9.24559 13.8522 10.582 14.5665 12.0368 14.8559C13.4917 15.1453 14.9997 14.9968 16.3701 14.4291C17.7406 13.8614 18.9119 12.9001 19.736 11.6668C20.5601 10.4334 21 8.98336 21 7.5C21 5.51088 20.2098 3.60322 18.8033 2.1967C17.3968 0.790176 15.4891 0 13.5 0ZM0 33H42V36H0V33ZM37.9545 6C37.4208 5.99989 36.8926 6.10683 36.401 6.31449C35.9094 6.52216 35.4645 6.82633 35.0925 7.209L34.5 7.815L33.9075 7.2075C33.5356 6.82467 33.0907 6.52033 32.5991 6.31251C32.1075 6.1047 31.5792 5.99762 31.0455 5.99762C30.5118 5.99762 29.9835 6.1047 29.4919 6.31251C29.0003 6.52033 28.5554 6.82467 28.1835 7.2075C27.4247 7.99094 27.0004 9.03884 27.0004 10.1295C27.0004 11.2202 27.4247 12.2681 28.1835 13.0515L34.5 19.5L40.815 13.053C41.5738 12.2696 41.9981 11.2217 41.9981 10.131C41.9981 9.04034 41.5738 7.99244 40.815 7.209C40.4434 6.82669 39.9989 6.52273 39.5079 6.31507C39.0168 6.10742 38.4892 6.00029 37.956 6" fill="black"/>
</svg>
