<svg width="40" height="40" viewBox="0 0 40 40" fill="none" xmlns="http://www.w3.org/2000/svg">
<path d="M12 17.9954C12 17.465 12.2107 16.9563 12.5858 16.5812C12.9609 16.2061 13.4696 15.9954 14 15.9954H26C26.5304 15.9954 27.0391 16.2061 27.4142 16.5812C27.7893 16.9563 28 17.465 28 17.9954C28 18.5259 27.7893 19.0346 27.4142 19.4096C27.0391 19.7847 26.5304 19.9954 26 19.9954H14C13.4696 19.9954 12.9609 19.7847 12.5858 19.4096C12.2107 19.0346 12 18.5259 12 17.9954ZM14 23.9954C13.4696 23.9954 12.9609 24.2061 12.5858 24.5812C12.2107 24.9563 12 25.465 12 25.9954C12 26.5259 12.2107 27.0346 12.5858 27.4096C12.9609 27.7847 13.4696 27.9954 14 27.9954H22C22.5304 27.9954 23.0391 27.7847 23.4142 27.4096C23.7893 27.0346 24 26.5259 24 25.9954C24 25.465 23.7893 24.9563 23.4142 24.5812C23.0391 24.2061 22.5304 23.9954 22 23.9954H14ZM2.25342e-06 19.9954C0.00100536 15.6106 1.44297 11.3477 4.10397 7.86262C6.76497 4.37757 10.4975 1.86359 14.7272 0.707582C18.9569 -0.448427 23.4492 -0.182393 27.5129 1.46474C31.5766 3.11187 34.9864 6.04881 37.2174 9.82357C39.4485 13.5983 40.3773 18.0017 39.8608 22.3559C39.3442 26.7102 37.4111 30.7741 34.3588 33.9221C31.3065 37.0701 27.3043 39.1278 22.968 39.7785C18.6318 40.4293 14.2018 39.6369 10.36 37.5234L2.584 39.8914C2.23717 39.9971 1.86813 40.0065 1.51637 39.9186C1.16462 39.8307 0.84337 39.6488 0.586993 39.3924C0.330616 39.1361 0.148754 38.8148 0.060861 38.4631C-0.0270321 38.1113 -0.0176507 37.7423 0.0880021 37.3954L2.456 29.6074C0.843059 26.6605 -0.00159227 23.3548 2.25342e-06 19.9954ZM20 3.99543C17.1598 3.99519 14.3706 4.75101 11.9191 6.18525C9.4676 7.6195 7.44205 9.68047 6.05051 12.1565C4.65898 14.6325 3.95162 17.4343 4.00109 20.2741C4.05056 23.1139 4.85507 25.8894 6.332 28.3154C6.47861 28.5564 6.57258 28.8257 6.60774 29.1056C6.6429 29.3855 6.61845 29.6697 6.536 29.9394L5.004 34.9754L10.032 33.4434C10.3026 33.361 10.5877 33.3369 10.8683 33.3727C11.149 33.4086 11.4188 33.5036 11.66 33.6514C13.7687 34.9389 16.1469 35.7205 18.6083 35.935C21.0696 36.1495 23.5472 35.7911 25.8468 34.8879C28.1465 33.9846 30.2057 32.5611 31.8631 30.7289C33.5206 28.8966 34.7311 26.7054 35.4 24.327C36.0689 21.9486 36.1778 19.4476 35.7184 17.02C35.2589 14.5925 34.2435 12.3043 32.7518 10.3348C31.26 8.36531 29.3324 6.76806 27.12 5.66821C24.9077 4.56837 22.4707 3.99582 20 3.99543Z" fill="black"/>
</svg>
