<svg width="43" height="39" viewBox="0 0 43 39" fill="none" xmlns="http://www.w3.org/2000/svg">
<path d="M3.80841 3.80845C6.12854 1.4879 9.24041 0.130619 12.5196 0.00894731C15.7988 -0.112724 19.0027 1.01022 21.4884 3.15245C23.9719 1.01379 27.1716 -0.107892 30.4468 0.01197C33.7221 0.131832 36.8312 1.48439 39.1518 3.79886C41.4723 6.11333 42.833 9.21889 42.9614 12.4938C43.0899 15.7688 41.9766 18.9713 39.8444 21.4604L24.3144 37.0404C23.6009 37.7542 22.644 38.1719 21.6355 38.2097C20.6269 38.2475 19.6414 37.9027 18.8764 37.2444L18.6564 37.0424L3.12841 21.4604C0.997391 18.9735 -0.116427 15.7739 0.00964354 12.5012C0.135714 9.22856 1.49238 6.12408 3.80841 3.80845ZM6.63641 6.63645C5.0009 8.27242 4.05812 10.4753 4.00375 12.788C3.94938 15.1006 4.78759 17.3454 6.34441 19.0564L6.63641 19.3644L21.4864 34.2144L32.0924 23.6044L25.0224 16.5364L22.9024 18.6564C21.7774 19.782 20.2513 20.4146 18.6598 20.415C17.0684 20.4153 15.542 19.7835 14.4164 18.6584C13.2908 17.5334 12.6583 16.0073 12.6579 14.4159C12.6575 12.8244 13.2894 11.298 14.4144 10.1724L18.6184 5.96645C16.9455 4.63081 14.8513 3.93519 12.7118 4.00447C10.5722 4.07375 8.5274 4.90338 6.94441 6.34445L6.63641 6.63645ZM23.6084 12.2924C23.9835 11.9175 24.4921 11.7069 25.0224 11.7069C25.5527 11.7069 26.0614 11.9175 26.4364 12.2924L34.9204 20.7764L36.3364 19.3644C37.9993 17.7027 38.946 15.4563 38.9741 13.1056C39.0021 10.7549 38.1093 8.48648 36.4865 6.78555C34.8637 5.08463 32.6397 4.08619 30.2903 4.00375C27.9409 3.92132 25.6524 4.76144 23.9144 6.34445L23.6084 6.63645L17.2444 13.0004C16.8978 13.3469 16.6904 13.8085 16.6616 14.2978C16.6328 14.787 16.7847 15.2698 17.0884 15.6544L17.2444 15.8284C17.5908 16.1751 18.0525 16.3825 18.5417 16.4113C19.031 16.44 19.5138 16.2881 19.8984 15.9844L20.0724 15.8284L23.6084 12.2924Z" fill="black" fill-opacity="0.5"/>
</svg>
