<svg width="48" height="48" viewBox="0 0 48 48" fill="none" xmlns="http://www.w3.org/2000/svg">
<path d="M6.32202 8.93808C8.64215 6.61754 11.754 5.26026 15.0332 5.13859C18.3124 5.01691 21.5163 6.13986 24.002 8.28208C26.4855 6.14342 29.6852 5.02175 32.9605 5.14161C36.2357 5.26147 39.3448 6.61403 41.6654 8.9285C43.9859 11.243 45.3466 14.3485 45.475 17.6235C45.6035 20.8984 44.4902 24.101 42.358 26.5901L26.828 42.1701C26.1145 42.8838 25.1576 43.3015 24.1491 43.3393C23.1405 43.3772 22.155 43.0324 21.39 42.3741L21.17 42.1721L5.64202 26.5901C3.511 24.1031 2.39718 20.9035 2.52325 17.6308C2.64933 14.3582 4.00599 11.2537 6.32202 8.93808ZM9.15002 11.7661C7.51451 13.4021 6.57173 15.605 6.51736 17.9176C6.46299 20.2303 7.3012 22.4751 8.85802 24.1861L9.15002 24.4941L24 39.3441L34.606 28.7341L27.536 21.6661L25.416 23.7861C24.291 24.9117 22.7649 25.5442 21.1734 25.5446C19.582 25.545 18.0556 24.9131 16.93 23.7881C15.8044 22.663 15.1719 21.1369 15.1715 19.5455C15.1711 17.9541 15.803 16.4277 16.928 15.3021L21.132 11.0961C19.4591 9.76045 17.3649 9.06483 15.2254 9.13411C13.0858 9.20339 11.041 10.033 9.45802 11.4741L9.15002 11.7661ZM26.122 17.4221C26.4971 17.0471 27.0057 16.8365 27.536 16.8365C28.0664 16.8365 28.575 17.0471 28.95 17.4221L37.434 25.9061L38.85 24.4941C40.5129 22.8324 41.4596 20.5859 41.4877 18.2352C41.5157 15.8845 40.6229 13.6161 39.0001 11.9152C37.3773 10.2143 35.1534 9.21582 32.8039 9.13339C30.4545 9.05096 28.166 9.89108 26.428 11.4741L26.122 11.7661L19.758 18.1301C19.4114 18.4765 19.204 18.9382 19.1752 19.4274C19.1465 19.9167 19.2983 20.3994 19.602 20.7841L19.758 20.9581C20.1045 21.3047 20.5661 21.5121 21.0554 21.5409C21.5446 21.5697 22.0274 21.4178 22.412 21.1141L22.586 20.9581L26.122 17.4221Z" fill="black"/>
</svg>
