<svg width="38" height="40" viewBox="0 0 38 40" fill="none" xmlns="http://www.w3.org/2000/svg">
<path fill-rule="evenodd" clip-rule="evenodd" d="M32.8182 4H5.18182C4.72372 4 4.28438 4.21071 3.96045 4.58579C3.63653 4.96086 3.45455 5.46957 3.45455 6V34C3.45455 34.5304 3.63653 35.0391 3.96045 35.4142C4.28438 35.7893 4.72372 36 5.18182 36H32.8182C33.2763 36 33.7156 35.7893 34.0396 35.4142C34.3635 35.0391 34.5455 34.5304 34.5455 34V6C34.5455 5.46957 34.3635 4.96086 34.0396 4.58579C33.7156 4.21071 33.2763 4 32.8182 4ZM5.18182 0C3.80751 0 2.4895 0.632141 1.51772 1.75736C0.54594 2.88258 0 4.4087 0 6V34C0 35.5913 0.54594 37.1174 1.51772 38.2426C2.4895 39.3679 3.80751 40 5.18182 40H32.8182C34.1925 40 35.5105 39.3679 36.4823 38.2426C37.4541 37.1174 38 35.5913 38 34V6C38 4.4087 37.4541 2.88258 36.4823 1.75736C35.5105 0.632141 34.1925 0 32.8182 0H5.18182ZM8.63636 10H12.0909V14H8.63636V10ZM17.2727 10C16.8146 10 16.3753 10.2107 16.0514 10.5858C15.7274 10.9609 15.5455 11.4696 15.5455 12C15.5455 12.5304 15.7274 13.0391 16.0514 13.4142C16.3753 13.7893 16.8146 14 17.2727 14H27.6364C28.0945 14 28.5338 13.7893 28.8577 13.4142C29.1817 13.0391 29.3636 12.5304 29.3636 12C29.3636 11.4696 29.1817 10.9609 28.8577 10.5858C28.5338 10.2107 28.0945 10 27.6364 10H17.2727ZM12.0909 18H8.63636V22H12.0909V18ZM15.5455 20C15.5455 19.4696 15.7274 18.9609 16.0514 18.5858C16.3753 18.2107 16.8146 18 17.2727 18H27.6364C28.0945 18 28.5338 18.2107 28.8577 18.5858C29.1817 18.9609 29.3636 19.4696 29.3636 20C29.3636 20.5304 29.1817 21.0391 28.8577 21.4142C28.5338 21.7893 28.0945 22 27.6364 22H17.2727C16.8146 22 16.3753 21.7893 16.0514 21.4142C15.7274 21.0391 15.5455 20.5304 15.5455 20ZM12.0909 26H8.63636V30H12.0909V26ZM15.5455 28C15.5455 27.4696 15.7274 26.9609 16.0514 26.5858C16.3753 26.2107 16.8146 26 17.2727 26H27.6364C28.0945 26 28.5338 26.2107 28.8577 26.5858C29.1817 26.9609 29.3636 27.4696 29.3636 28C29.3636 28.5304 29.1817 29.0391 28.8577 29.4142C28.5338 29.7893 28.0945 30 27.6364 30H17.2727C16.8146 30 16.3753 29.7893 16.0514 29.4142C15.7274 29.0391 15.5455 28.5304 15.5455 28Z" fill="black" fill-opacity="0.5"/>
</svg>
