<svg width="350" height="350" viewBox="0 0 350 350" fill="none" xmlns="http://www.w3.org/2000/svg">
<path d="M167.608 8.11332C171.574 3.75978 178.426 3.75977 182.392 8.11332L206.917 35.0314C209.548 37.9195 213.621 39.0106 217.343 37.8252L252.042 26.7759C257.654 24.9889 263.587 28.4144 264.845 34.1679L272.625 69.7422C273.46 73.5589 276.441 76.54 280.258 77.3748L315.832 85.155C321.586 86.4133 325.011 92.3465 323.224 97.9583L312.175 132.657C310.989 136.379 312.081 140.452 314.969 143.083L341.887 167.608C346.24 171.574 346.24 178.426 341.887 182.392L314.969 206.917C312.081 209.548 310.989 213.621 312.175 217.343L323.224 252.042C325.011 257.654 321.586 263.587 315.832 264.845L280.258 272.625C276.441 273.46 273.46 276.441 272.625 280.258L264.845 315.832C263.587 321.586 257.654 325.011 252.042 323.224L217.343 312.175C213.621 310.989 209.548 312.081 206.917 314.969L182.392 341.887C178.426 346.24 171.574 346.24 167.608 341.887L143.083 314.969C140.452 312.081 136.379 310.989 132.657 312.175L97.9583 323.224C92.3465 325.011 86.4133 321.586 85.155 315.832L77.3748 280.258C76.54 276.441 73.5589 273.46 69.7422 272.625L34.1679 264.845C28.4144 263.587 24.9889 257.654 26.7759 252.042L37.8252 217.343C39.0106 213.621 37.9195 209.548 35.0315 206.917L8.11332 182.392C3.75978 178.426 3.75977 171.574 8.11332 167.608L35.0314 143.083C37.9195 140.452 39.0106 136.379 37.8252 132.657L26.7759 97.9583C24.9889 92.3465 28.4144 86.4133 34.1679 85.155L69.7422 77.3748C73.5589 76.54 76.54 73.5589 77.3748 69.7422L85.155 34.1679C86.4133 28.4144 92.3465 24.9889 97.9583 26.7759L132.657 37.8252C136.379 39.0106 140.452 37.9195 143.083 35.0315L167.608 8.11332Z" fill="#8C4E20"/>
<path d="M174.235 32.5962C252.602 32.5962 316.132 96.1249 316.132 174.492C316.132 252.859 252.602 316.388 174.235 316.388C95.8687 316.388 32.34 252.858 32.34 174.492C32.3401 96.1251 95.8688 32.5964 174.235 32.5962Z" fill="#D9A066" stroke="#6B4226"/>
<circle cx="175" cy="175" r="127.12" fill="#CD7F32" stroke="#8C4E20"/>
<path d="M175.5 49L179.291 127.33L195.289 50.5574L186.78 128.516L214.591 55.1914L193.991 130.859L232.93 62.7877L200.746 134.302L249.855 73.1593L206.88 138.758L264.949 86.051L212.242 144.12L277.841 101.145L216.698 150.254L288.212 118.07L220.141 157.009L295.809 136.409L222.484 164.22L300.443 155.711L223.67 171.709L302 175.5L223.67 179.291L300.443 195.289L222.484 186.78L295.809 214.591L220.141 193.991L288.212 232.93L216.698 200.746L277.841 249.855L212.242 206.88L264.949 264.949L206.88 212.242L249.855 277.841L200.746 216.698L232.93 288.212L193.991 220.141L214.591 295.809L186.78 222.484L195.289 300.443L179.291 223.67L175.5 302L171.709 223.67L155.711 300.443L164.22 222.484L136.409 295.809L157.009 220.141L118.07 288.212L150.254 216.698L101.145 277.841L144.12 212.242L86.051 264.949L138.758 206.88L73.1593 249.855L134.302 200.746L62.7877 232.93L130.859 193.991L55.1914 214.591L128.516 186.78L50.5574 195.289L127.33 179.291L49 175.5L127.33 171.709L50.5574 155.711L128.516 164.22L55.1914 136.409L130.859 157.009L62.7877 118.07L134.302 150.254L73.1593 101.145L138.758 144.12L86.051 86.051L144.12 138.758L101.145 73.1593L150.254 134.302L118.07 62.7877L157.009 130.859L136.409 55.1914L164.22 128.516L155.711 50.5574L171.709 127.33L175.5 49Z" fill="#FFD39B"/>
<path d="M172.194 115.5C177.841 115.5 182.737 118.853 185.064 123.724L185.264 124.139L185.693 123.976C187.256 123.382 188.931 123.063 190.696 123.062C198.574 123.062 204.998 129.611 204.998 137.688V138.807L205.624 138.644C206.763 138.347 207.969 138.188 209.198 138.188C217.076 138.188 223.5 144.736 223.5 152.812V194.406C223.5 194.74 223.478 195.06 223.417 195.374L223.41 195.405L223.408 195.438C222.013 216.867 205.252 233.959 184.302 235.406L184.269 235.409L184.236 235.416C183.932 235.478 183.621 235.5 183.296 235.5H179.479C163.912 235.5 148.985 229.175 137.977 217.926L117.693 197.199C112.102 191.485 112.102 182.225 117.693 176.512C123.279 170.804 132.323 170.804 137.909 176.512L138.534 177.149L139.392 178.025V137.688C139.392 129.611 145.815 123.063 153.692 123.062C155.458 123.062 157.132 123.382 158.695 123.976L159.126 124.139L159.324 123.724C161.652 118.853 166.548 115.5 172.194 115.5ZM172.194 125.844C169.873 125.844 167.994 127.78 167.994 130.125V169.828C167.994 172.705 165.733 175 162.943 175C160.154 175 157.893 172.705 157.893 169.828V137.664C157.893 135.314 156.01 133.406 153.692 133.406C151.371 133.406 149.492 135.342 149.492 137.688V190.483C149.492 192.582 148.264 194.475 146.376 195.269C144.483 196.064 142.319 195.635 140.867 194.151L130.761 183.823C129.131 182.158 126.449 182.158 124.819 183.823C123.195 185.483 123.195 188.205 124.819 189.864L145.102 210.59C154.214 219.902 166.577 225.133 179.479 225.133H182.621L182.663 225.126C182.8 225.103 182.926 225.085 183.019 225.085H183.043C199.172 224.281 212.143 211.26 213.306 194.904L213.352 194.123C213.362 194.046 213.37 193.97 213.374 193.912C213.38 193.831 213.385 193.776 213.393 193.73L213.398 193.69V152.789C213.398 150.443 211.52 148.508 209.198 148.508C206.877 148.508 204.998 150.444 204.998 152.789V169.805C204.998 172.682 202.737 174.977 199.947 174.977C197.158 174.976 194.897 172.682 194.896 169.805V137.664C194.896 135.318 193.018 133.383 190.696 133.383C188.375 133.383 186.496 135.319 186.496 137.664V169.828C186.496 172.705 184.235 175 181.445 175C178.656 175 176.395 172.705 176.395 169.828V130.125C176.395 127.779 174.516 125.844 172.194 125.844Z" fill="#6B4226" stroke="#4A2E1B"/>
</svg>
